<svg id="LOGO_WT" data-name="LOGO WT" xmlns="http://www.w3.org/2000/svg" width="137.927" height="48" viewBox="0 0 137.927 48">
  <g id="Grupo_3" data-name="Grupo 3">
    <path id="Trazado_3" data-name="Trazado 3" d="M568.862,1106v4.725h-4.72v3.2h4.72v4.726l3.2,0v-4.724h4.719v-3.2h-4.719V1106Z" transform="translate(-564.143 -1105.997)" fill="#ec4e20"/>
    <g id="Grupo_2" data-name="Grupo 2" transform="translate(12.637 12.652)">
      <path id="Trazado_4" data-name="Trazado 4" d="M644.831,1127m7.553-10.04a4.374,4.374,0,0,0-4.366-4.372h-4.79V1127h1.6v-5.666h3.187c.123,0,.245-.006.37-.017l2.6,5.683h1.758l-2.8-6.117a4.375,4.375,0,0,0,2.439-3.922m-4.366,2.769h-3.187v-5.539h3.187a2.77,2.77,0,0,1,0,5.539m-52.44,2.868c0,2.137-1.444,3-3.195,3s-3.193-.866-3.193-3v-10.009h-1.6v10.024c0,2.832,1.954,4.589,4.794,4.589s4.792-1.757,4.792-4.589v-10.024h-1.6Zm-15.024,1.1-2.125-11.1h-1.941l-2.125,11.1-2-11.1h-1.63L573.5,1127h1.691l2.272-11.153L579.726,1127h1.693l2.763-14.411h-1.628Zm54.68,9.632h-4.786v14.41h1.6v-5.666h3.191a4.372,4.372,0,0,0,0-8.744m0,7.141h-3.191v-5.539h3.191a2.77,2.77,0,0,1,0,5.539m-3.189,7.269h0Zm43.744-35.147L671.19,1127h1.678l1.058-3.314h5.456L680.44,1127h1.682l-4.6-14.411Zm-1.35,9.494,2.217-6.939,2.215,6.939ZM662,1133.124a4.676,4.676,0,0,0-4.667,4.675v5.462a4.668,4.668,0,1,0,9.337,0V1137.8a4.675,4.675,0,0,0-4.669-4.675m3.068,10.138a3.069,3.069,0,1,1-6.138,0V1137.8a3.069,3.069,0,1,1,6.138,0Zm-58.519-10.138a4.676,4.676,0,0,0-4.667,4.675v5.462a4.668,4.668,0,1,0,9.337,0V1137.8a4.677,4.677,0,0,0-4.669-4.675m3.07,10.138a3.069,3.069,0,1,1-6.138,0V1137.8a3.069,3.069,0,1,1,6.138,0Zm.146-19.571-6.514-11.1h-1.517V1127h1.6v-11.1l6.514,11.1h1.515v-14.411l-1.6,0Zm84.656-11.1v11.1l-6.514-11.1H686.4V1127H688v-11.1l6.514,11.1h1.513v-14.411Zm-14.556,31.841-6.512-11.105h-1.515v14.41h1.6v-11.1l6.512,11.1h1.517v-14.41h-1.6Zm-54.464-22.1v-5.061a4.678,4.678,0,0,0-4.669-4.677H615.95V1127h4.786a4.676,4.676,0,0,0,4.669-4.673m-7.858-8.137h3.189a3.073,3.073,0,0,1,3.07,3.076v5.061a3.071,3.071,0,0,1-3.07,3.074h-3.189Zm21.468,11.211H631.8v-4.825h6.432v-1.6H631.8v-4.785h7.214v-1.6H630.2V1127h8.815Zm22.99-5.7-3.588-7.114h-1.668V1127h1.6v-11.1l3.141,6.344h1.026l3.143-6.344V1127h1.6v-14.41h-1.664Zm-90.486,15.224h5.141v12.808h1.6v-12.808H583.4v-1.6h-11.88Zm24,4.8h-6.272v-6.405h-1.6v14.41h1.6v-6.4h6.272v6.4h1.6v-14.41h-1.6Zm53.532.025-2.29-.912c-1.547-.651-1.762-1.382-1.762-2.02a1.78,1.78,0,0,1,.654-1.43,3.481,3.481,0,0,1,2.223-.666,3.394,3.394,0,0,1,2.234.693,2.214,2.214,0,0,1,.717,1.753v.263h1.6v-.263c0-2.494-1.862-4.047-4.552-4.047s-4.478,1.53-4.478,3.7c0,1.926,1.367,2.974,3.024,3.61l2.048.812c1.971.772,2.543,1.335,2.543,2.513a2.3,2.3,0,0,1-.777,1.828,3.7,3.7,0,0,1-2.418.749,3.89,3.89,0,0,1-2.458-.722,2.128,2.128,0,0,1-.759-1.722v-.353H643v.353c0,2.492,1.971,4.045,4.815,4.045s4.792-1.641,4.792-4.178c0-2.475-1.881-3.349-3.559-4m-28.373.684-3.59-7.114h-1.666v14.41h1.6v-11.1l3.143,6.345h1.026l3.141-6.345v11.1h1.6v-14.41h-1.666Z" transform="translate(-570.733 -1112.586)" fill="#fff"/>
    </g>
  </g>
</svg>
