<svg id="Componente_2_17" data-name="Componente 2 – 17" xmlns="http://www.w3.org/2000/svg" width="255" height="370" viewBox="0 0 255 370">
  <g id="Grupo_6" data-name="Grupo 6">
    <path id="Trazado_7" data-name="Trazado 7" d="M-576.188-627.287v3.621h-3.625v2.452h3.625v3.621h2.458v-3.621h3.625v-2.452h-3.625v-3.621Zm-22.3,0v3.621h-3.627v2.452h3.627v3.621h2.456v-3.621h3.627v-2.452h-3.627v-3.621Zm-220.535,0v3.621h3.627v2.452h-3.627v3.621h-2.458v-3.621H-825.1v-2.452h3.625v-3.621Zm19.84,0v3.621h-3.625v2.452h3.625v3.621h2.46v-3.621h3.625v-2.452h-3.625v-3.621Zm22.3,0v3.621h-3.627v2.452h3.627v3.621h2.459v-3.621h3.624v-2.452h-3.624v-3.621Zm22.3,0v3.621h-3.625v2.452h3.625v3.621h2.458v-3.621h3.626v-2.452h-3.626v-3.621Zm22.3,0v3.621h-3.625v2.452h3.625v3.621h2.457v-3.621h3.627v-2.452h-3.627v-3.621Zm22.3,0v3.621h-3.627v2.452h3.627v3.621h2.457v-3.621h3.627v-2.452h-3.627v-3.621Zm22.3,0v3.621h-3.628v2.452h3.628v3.621h2.458v-3.621h3.625v-2.452h-3.625v-3.621Zm22.3,0v3.621h-3.628v2.452h3.628v3.621h2.457v-3.621h3.627v-2.452h-3.627v-3.621Zm22.3,0v3.621h-3.628v2.452h3.628v3.621h2.455v-3.621H-637v-2.452h-3.628v-3.621Zm22.3,0v3.621h-3.626v2.452h3.626v3.621h2.456v-3.621h3.628v-2.452h-3.628v-3.621Z" transform="translate(825.104 627.287)" fill="#ec4e20"/>
    <path id="Trazado_8" data-name="Trazado 8" d="M-576.188-606.365v3.621h-3.625v2.453h3.625v3.619h2.458v-3.619h3.625v-2.453h-3.625v-3.621Zm-22.3,0v3.621h-3.627v2.453h3.627v3.619h2.456v-3.619h3.627v-2.453h-3.627v-3.621Zm-220.535,0v3.621h3.627v2.453h-3.627v3.619h-2.458v-3.619H-825.1v-2.453h3.625v-3.621Zm19.84,0v3.621h-3.625v2.453h3.625v3.619h2.46v-3.619h3.625v-2.453h-3.625v-3.621Zm22.3,0v3.621h-3.627v2.453h3.627v3.619h2.459v-3.619h3.624v-2.453h-3.624v-3.621Zm22.3,0v3.621h-3.625v2.453h3.625v3.619h2.458v-3.619h3.626v-2.453h-3.626v-3.621Zm22.3,0v3.621h-3.625v2.453h3.625v3.619h2.457v-3.619h3.627v-2.453h-3.627v-3.621Zm22.3,0v3.621h-3.627v2.453h3.627v3.619h2.457v-3.619h3.627v-2.453h-3.627v-3.621Zm22.3,0v3.621h-3.628v2.453h3.628v3.619h2.458v-3.619h3.625v-2.453h-3.625v-3.621Zm22.3,0v3.621h-3.628v2.453h3.628v3.619h2.457v-3.619h3.627v-2.453h-3.627v-3.621Zm22.3,0v3.621h-3.628v2.453h3.628v3.619h2.455v-3.619H-637v-2.453h-3.628v-3.621Zm22.3,0v3.621h-3.626v2.453h3.626v3.619h2.456v-3.619h3.628v-2.453h-3.628v-3.621Z" transform="translate(825.104 636.389)" fill="#ec4e20"/>
    <path id="Trazado_9" data-name="Trazado 9" d="M-576.188-585.441v3.621h-3.625v2.452h3.625v3.619h2.458v-3.619h3.625v-2.452h-3.625v-3.621Zm-22.3,0v3.621h-3.627v2.452h3.627v3.619h2.456v-3.619h3.627v-2.452h-3.627v-3.621Zm-220.535,0v3.621h3.627v2.452h-3.627v3.619h-2.458v-3.619H-825.1v-2.452h3.625v-3.621Zm19.84,0v3.621h-3.625v2.452h3.625v3.619h2.46v-3.619h3.625v-2.452h-3.625v-3.621Zm22.3,0v3.621h-3.627v2.452h3.627v3.619h2.459v-3.619h3.624v-2.452h-3.624v-3.621Zm22.3,0v3.621h-3.625v2.452h3.625v3.619h2.458v-3.619h3.626v-2.452h-3.626v-3.621Zm22.3,0v3.621h-3.625v2.452h3.625v3.619h2.457v-3.619h3.627v-2.452h-3.627v-3.621Zm22.3,0v3.621h-3.627v2.452h3.627v3.619h2.457v-3.619h3.627v-2.452h-3.627v-3.621Zm22.3,0v3.621h-3.628v2.452h3.628v3.619h2.458v-3.619h3.625v-2.452h-3.625v-3.621Zm22.3,0v3.621h-3.628v2.452h3.628v3.619h2.457v-3.619h3.627v-2.452h-3.627v-3.621Zm22.3,0v3.621h-3.628v2.452h3.628v3.619h2.455v-3.619H-637v-2.452h-3.628v-3.621Zm22.3,0v3.621h-3.626v2.452h3.626v3.619h2.456v-3.619h3.628v-2.452h-3.628v-3.621Z" transform="translate(825.104 645.491)" fill="#ec4e20"/>
    <path id="Trazado_10" data-name="Trazado 10" d="M-576.188-564.518v3.621h-3.625v2.452h3.625v3.619h2.458v-3.619h3.625V-560.9h-3.625v-3.621Zm-22.3,0v3.621h-3.627v2.452h3.627v3.619h2.456v-3.619h3.627V-560.9h-3.627v-3.621Zm-220.535,0v3.621h3.627v2.452h-3.627v3.619h-2.458v-3.619H-825.1V-560.9h3.625v-3.621Zm19.84,0v3.621h-3.625v2.452h3.625v3.619h2.46v-3.619h3.625V-560.9h-3.625v-3.621Zm22.3,0v3.621h-3.627v2.452h3.627v3.619h2.459v-3.619h3.624V-560.9h-3.624v-3.621Zm22.3,0v3.621h-3.625v2.452h3.625v3.619h2.458v-3.619h3.626V-560.9h-3.626v-3.621Zm22.3,0v3.621h-3.625v2.452h3.625v3.619h2.457v-3.619h3.627V-560.9h-3.627v-3.621Zm22.3,0v3.621h-3.627v2.452h3.627v3.619h2.457v-3.619h3.627V-560.9h-3.627v-3.621Zm22.3,0v3.621h-3.628v2.452h3.628v3.619h2.458v-3.619h3.625V-560.9h-3.625v-3.621Zm22.3,0v3.621h-3.628v2.452h3.628v3.619h2.457v-3.619h3.627V-560.9h-3.627v-3.621Zm22.3,0v3.621h-3.628v2.452h3.628v3.619h2.455v-3.619H-637V-560.9h-3.628v-3.621Zm22.3,0v3.621h-3.626v2.452h3.626v3.619h2.456v-3.619h3.628V-560.9h-3.628v-3.621Z" transform="translate(825.104 654.593)" fill="#ec4e20"/>
    <path id="Trazado_11" data-name="Trazado 11" d="M-576.188-543.594v3.62h-3.625v2.453h3.625v3.619h2.458v-3.619h3.625v-2.453h-3.625v-3.62Zm-22.3,0v3.62h-3.627v2.453h3.627v3.619h2.456v-3.619h3.627v-2.453h-3.627v-3.62Zm-220.535,0v3.62h3.627v2.453h-3.627v3.619h-2.458v-3.619H-825.1v-2.453h3.625v-3.62Zm19.84,0v3.62h-3.625v2.453h3.625v3.619h2.46v-3.619h3.625v-2.453h-3.625v-3.62Zm22.3,0v3.62h-3.627v2.453h3.627v3.619h2.459v-3.619h3.624v-2.453h-3.624v-3.62Zm22.3,0v3.62h-3.625v2.453h3.625v3.619h2.458v-3.619h3.626v-2.453h-3.626v-3.62Zm22.3,0v3.62h-3.625v2.453h3.625v3.619h2.457v-3.619h3.627v-2.453h-3.627v-3.62Zm22.3,0v3.62h-3.627v2.453h3.627v3.619h2.457v-3.619h3.627v-2.453h-3.627v-3.62Zm22.3,0v3.62h-3.628v2.453h3.628v3.619h2.458v-3.619h3.625v-2.453h-3.625v-3.62Zm22.3,0v3.62h-3.628v2.453h3.628v3.619h2.457v-3.619h3.627v-2.453h-3.627v-3.62Zm22.3,0v3.62h-3.628v2.453h3.628v3.619h2.455v-3.619H-637v-2.453h-3.628v-3.62Zm22.3,0v3.62h-3.626v2.453h3.626v3.619h2.456v-3.619h3.628v-2.453h-3.628v-3.62Z" transform="translate(825.104 663.695)" fill="#ec4e20"/>
    <path id="Trazado_12" data-name="Trazado 12" d="M-576.188-522.671v3.62h-3.625v2.453h3.625v3.622l2.458,0V-516.6h3.625v-2.453h-3.625v-3.62Zm-22.3,0v3.62h-3.627v2.453h3.627v3.622l2.456,0V-516.6h3.627v-2.453h-3.627v-3.62Zm-220.535,0v3.62h3.627v2.453h-3.627v3.619l-2.458,0V-516.6H-825.1v-2.453h3.625v-3.62Zm19.84,0v3.62h-3.625v2.453h3.625v3.622l2.46,0V-516.6h3.625v-2.453h-3.625v-3.62Zm22.3,0v3.62h-3.627v2.453h3.627v3.622l2.459,0V-516.6h3.624v-2.453h-3.624v-3.62Zm22.3,0v3.62h-3.625v2.453h3.625v3.622l2.458,0V-516.6h3.626v-2.453h-3.626v-3.62Zm22.3,0v3.62h-3.625v2.453h3.625v3.622l2.457,0V-516.6h3.627v-2.453h-3.627v-3.62Zm22.3,0v3.62h-3.627v2.453h3.627v3.622l2.457,0V-516.6h3.627v-2.453h-3.627v-3.62Zm22.3,0v3.62h-3.628v2.453h3.628v3.622l2.458,0V-516.6h3.625v-2.453h-3.625v-3.62Zm22.3,0v3.62h-3.628v2.453h3.628v3.622l2.457,0V-516.6h3.627v-2.453h-3.627v-3.62Zm22.3,0v3.62h-3.628v2.453h3.628v3.622l2.455,0V-516.6H-637v-2.453h-3.628v-3.62Zm22.3,0v3.62h-3.626v2.453h3.626v3.622l2.456,0V-516.6h3.628v-2.453h-3.628v-3.62Z" transform="translate(825.104 672.798)" fill="#ec4e20"/>
    <path id="Trazado_13" data-name="Trazado 13" d="M-576.188-501.747v3.621h-3.625v2.452h3.625v3.619h2.458v-3.619h3.625v-2.452h-3.625v-3.621Zm-22.3,0v3.621h-3.627v2.452h3.627v3.619h2.456v-3.619h3.627v-2.452h-3.627v-3.621Zm-220.535,0v3.621h3.627v2.452h-3.627v3.619h-2.458v-3.619H-825.1v-2.452h3.625v-3.621Zm19.84,0v3.621h-3.625v2.452h3.625v3.619h2.46v-3.619h3.625v-2.452h-3.625v-3.621Zm22.3,0v3.621h-3.627v2.452h3.627v3.619h2.459v-3.619h3.624v-2.452h-3.624v-3.621Zm22.3,0v3.621h-3.625v2.452h3.625v3.619h2.458v-3.619h3.626v-2.452h-3.626v-3.621Zm22.3,0v3.621h-3.625v2.452h3.625v3.619h2.457v-3.619h3.627v-2.452h-3.627v-3.621Zm22.3,0v3.621h-3.627v2.452h3.627v3.619h2.457v-3.619h3.627v-2.452h-3.627v-3.621Zm22.3,0v3.621h-3.628v2.452h3.628v3.619h2.458v-3.619h3.625v-2.452h-3.625v-3.621Zm22.3,0v3.621h-3.628v2.452h3.628v3.619h2.457v-3.619h3.627v-2.452h-3.627v-3.621Zm22.3,0v3.621h-3.628v2.452h3.628v3.619h2.455v-3.619H-637v-2.452h-3.628v-3.621Zm22.3,0v3.621h-3.626v2.452h3.626v3.619h2.456v-3.619h3.628v-2.452h-3.628v-3.621Z" transform="translate(825.104 681.9)" fill="#ec4e20"/>
    <path id="Trazado_14" data-name="Trazado 14" d="M-576.188-480.823v3.618h-3.625v2.455h3.625v3.619h2.458v-3.618h3.625v-2.455h-3.625v-3.618Zm-22.3,0v3.618h-3.627v2.455h3.627v3.619h2.456v-3.618h3.627v-2.455h-3.627v-3.618Zm-220.535,0v3.618h3.627v2.455h-3.627v3.618h-2.458v-3.619H-825.1v-2.455h3.625v-3.618Zm19.84,0v3.618h-3.625v2.455h3.625v3.619h2.46v-3.618h3.625v-2.455h-3.625v-3.618Zm22.3,0v3.618h-3.627v2.455h3.627v3.619h2.459v-3.618h3.624v-2.455h-3.624v-3.618Zm22.3,0v3.618h-3.625v2.455h3.625v3.619h2.458v-3.618h3.626v-2.455h-3.626v-3.618Zm22.3,0v3.618h-3.625v2.455h3.625v3.619h2.457v-3.618h3.627v-2.455h-3.627v-3.618Zm22.3,0v3.618h-3.627v2.455h3.627v3.619h2.457v-3.618h3.627v-2.455h-3.627v-3.618Zm22.3,0v3.618h-3.628v2.455h3.628v3.619h2.458v-3.618h3.625v-2.455h-3.625v-3.618Zm22.3,0v3.618h-3.628v2.455h3.628v3.619h2.457v-3.618h3.627v-2.455h-3.627v-3.618Zm22.3,0v3.618h-3.628v2.455h3.628v3.619h2.455v-3.618H-637v-2.455h-3.628v-3.618Zm22.3,0v3.618h-3.626v2.455h3.626v3.619h2.456v-3.618h3.628v-2.455h-3.628v-3.618Z" transform="translate(825.104 691.003)" fill="#ec4e20"/>
    <path id="Trazado_15" data-name="Trazado 15" d="M-576.188-459.9v3.62h-3.625v2.453h3.625v3.619h2.458v-3.619h3.625v-2.453h-3.625v-3.62Zm-22.3,0v3.62h-3.627v2.453h3.627v3.619h2.456v-3.619h3.627v-2.453h-3.627v-3.62Zm-220.535,0v3.62h3.627v2.453h-3.627v3.619h-2.458v-3.619H-825.1v-2.453h3.625v-3.62Zm19.84,0v3.62h-3.625v2.453h3.625v3.619h2.46v-3.619h3.625v-2.453h-3.625v-3.62Zm22.3,0v3.62h-3.627v2.453h3.627v3.619h2.459v-3.619h3.624v-2.453h-3.624v-3.62Zm22.3,0v3.62h-3.625v2.453h3.625v3.619h2.458v-3.619h3.626v-2.453h-3.626v-3.62Zm22.3,0v3.62h-3.625v2.453h3.625v3.619h2.457v-3.619h3.627v-2.453h-3.627v-3.62Zm22.3,0v3.62h-3.627v2.453h3.627v3.619h2.457v-3.619h3.627v-2.453h-3.627v-3.62Zm22.3,0v3.62h-3.628v2.453h3.628v3.619h2.458v-3.619h3.625v-2.453h-3.625v-3.62Zm22.3,0v3.62h-3.628v2.453h3.628v3.619h2.457v-3.619h3.627v-2.453h-3.627v-3.62Zm22.3,0v3.62h-3.628v2.453h3.628v3.619h2.455v-3.619H-637v-2.453h-3.628v-3.62Zm22.3,0v3.62h-3.626v2.453h3.626v3.619h2.456v-3.619h3.628v-2.453h-3.628v-3.62Z" transform="translate(825.104 700.105)" fill="#ec4e20"/>
    <path id="Trazado_16" data-name="Trazado 16" d="M-576.188-438.976v3.621h-3.625v2.453h3.625v3.619h2.458V-432.9h3.625v-2.453h-3.625v-3.621Zm-22.3,0v3.621h-3.627v2.453h3.627v3.619h2.456V-432.9h3.627v-2.453h-3.627v-3.621Zm-220.535,0v3.621h3.627v2.453h-3.627v3.619h-2.458V-432.9H-825.1v-2.453h3.625v-3.621Zm19.84,0v3.621h-3.625v2.453h3.625v3.619h2.46V-432.9h3.625v-2.453h-3.625v-3.621Zm22.3,0v3.621h-3.627v2.453h3.627v3.619h2.459V-432.9h3.624v-2.453h-3.624v-3.621Zm22.3,0v3.621h-3.625v2.453h3.625v3.619h2.458V-432.9h3.626v-2.453h-3.626v-3.621Zm22.3,0v3.621h-3.625v2.453h3.625v3.619h2.457V-432.9h3.627v-2.453h-3.627v-3.621Zm22.3,0v3.621h-3.627v2.453h3.627v3.619h2.457V-432.9h3.627v-2.453h-3.627v-3.621Zm22.3,0v3.621h-3.628v2.453h3.628v3.619h2.458V-432.9h3.625v-2.453h-3.625v-3.621Zm22.3,0v3.621h-3.628v2.453h3.628v3.619h2.457V-432.9h3.627v-2.453h-3.627v-3.621Zm22.3,0v3.621h-3.628v2.453h3.628v3.619h2.455V-432.9H-637v-2.453h-3.628v-3.621Zm22.3,0v3.621h-3.626v2.453h3.626v3.619h2.456V-432.9h3.628v-2.453h-3.628v-3.621Z" transform="translate(825.104 709.207)" fill="#ec4e20"/>
    <path id="Trazado_17" data-name="Trazado 17" d="M-576.188-418.053v3.621h-3.625v2.452h3.625v3.619h2.458v-3.619h3.625v-2.452h-3.625v-3.621Zm-22.3,0v3.621h-3.627v2.452h3.627v3.619h2.456v-3.619h3.627v-2.452h-3.627v-3.621Zm-220.535,0v3.621h3.627v2.452h-3.627v3.619h-2.458v-3.619H-825.1v-2.452h3.625v-3.621Zm19.84,0v3.621h-3.625v2.452h3.625v3.619h2.46v-3.619h3.625v-2.452h-3.625v-3.621Zm22.3,0v3.621h-3.627v2.452h3.627v3.619h2.459v-3.619h3.624v-2.452h-3.624v-3.621Zm22.3,0v3.621h-3.625v2.452h3.625v3.619h2.458v-3.619h3.626v-2.452h-3.626v-3.621Zm22.3,0v3.621h-3.625v2.452h3.625v3.619h2.457v-3.619h3.627v-2.452h-3.627v-3.621Zm22.3,0v3.621h-3.627v2.452h3.627v3.619h2.457v-3.619h3.627v-2.452h-3.627v-3.621Zm22.3,0v3.621h-3.628v2.452h3.628v3.619h2.458v-3.619h3.625v-2.452h-3.625v-3.621Zm22.3,0v3.621h-3.628v2.452h3.628v3.619h2.457v-3.619h3.627v-2.452h-3.627v-3.621Zm22.3,0v3.621h-3.628v2.452h3.628v3.619h2.455v-3.619H-637v-2.452h-3.628v-3.621Zm22.3,0v3.621h-3.626v2.452h3.626v3.619h2.456v-3.619h3.628v-2.452h-3.628v-3.621Z" transform="translate(825.104 718.309)" fill="#ec4e20"/>
    <path id="Trazado_18" data-name="Trazado 18" d="M-576.188-397.129v3.62h-3.625v2.453h3.625v3.619h2.458v-3.619h3.625v-2.453h-3.625v-3.62Zm-22.3,0v3.62h-3.627v2.453h3.627v3.619h2.456v-3.619h3.627v-2.453h-3.627v-3.62Zm-220.535,0v3.62h3.627v2.453h-3.627v3.619h-2.458v-3.619H-825.1v-2.453h3.625v-3.62Zm19.84,0v3.62h-3.625v2.453h3.625v3.619h2.46v-3.619h3.625v-2.453h-3.625v-3.62Zm22.3,0v3.62h-3.627v2.453h3.627v3.619h2.459v-3.619h3.624v-2.453h-3.624v-3.62Zm22.3,0v3.62h-3.625v2.453h3.625v3.619h2.458v-3.619h3.626v-2.453h-3.626v-3.62Zm22.3,0v3.62h-3.625v2.453h3.625v3.619h2.457v-3.619h3.627v-2.453h-3.627v-3.62Zm22.3,0v3.62h-3.627v2.453h3.627v3.619h2.457v-3.619h3.627v-2.453h-3.627v-3.62Zm22.3,0v3.62h-3.628v2.453h3.628v3.619h2.458v-3.619h3.625v-2.453h-3.625v-3.62Zm22.3,0v3.62h-3.628v2.453h3.628v3.619h2.457v-3.619h3.627v-2.453h-3.627v-3.62Zm22.3,0v3.62h-3.628v2.453h3.628v3.619h2.455v-3.619H-637v-2.453h-3.628v-3.62Zm22.3,0v3.62h-3.626v2.453h3.626v3.619h2.456v-3.619h3.628v-2.453h-3.628v-3.62Z" transform="translate(825.104 727.412)" fill="#ec4e20"/>
    <path id="Trazado_19" data-name="Trazado 19" d="M-576.188-376.206v3.62h-3.625v2.452h3.625v3.619h2.458v-3.619h3.625v-2.452h-3.625v-3.62Zm-22.3,0v3.62h-3.627v2.452h3.627v3.619h2.456v-3.619h3.627v-2.452h-3.627v-3.62Zm-220.535,0v3.62h3.627v2.452h-3.627v3.619h-2.458v-3.619H-825.1v-2.452h3.625v-3.62Zm19.84,0v3.62h-3.625v2.452h3.625v3.619h2.46v-3.619h3.625v-2.452h-3.625v-3.62Zm22.3,0v3.62h-3.627v2.452h3.627v3.619h2.459v-3.619h3.624v-2.452h-3.624v-3.62Zm22.3,0v3.62h-3.625v2.452h3.625v3.619h2.458v-3.619h3.626v-2.452h-3.626v-3.62Zm22.3,0v3.62h-3.625v2.452h3.625v3.619h2.457v-3.619h3.627v-2.452h-3.627v-3.62Zm22.3,0v3.62h-3.627v2.452h3.627v3.619h2.457v-3.619h3.627v-2.452h-3.627v-3.62Zm22.3,0v3.62h-3.628v2.452h3.628v3.619h2.458v-3.619h3.625v-2.452h-3.625v-3.62Zm22.3,0v3.62h-3.628v2.452h3.628v3.619h2.457v-3.619h3.627v-2.452h-3.627v-3.62Zm22.3,0v3.62h-3.628v2.452h3.628v3.619h2.455v-3.619H-637v-2.452h-3.628v-3.62Zm22.3,0v3.62h-3.626v2.452h3.626v3.619h2.456v-3.619h3.628v-2.452h-3.628v-3.62Z" transform="translate(825.104 736.514)" fill="#ec4e20"/>
  </g>
</svg>
